<svg xmlns="http://www.w3.org/2000/svg" version="1.1" xmlns:xlink="http://www.w3.org/1999/xlink" xmlns:svgjs="http://svgjs.dev/svgjs" width="100" height="100"><svg xmlns="http://www.w3.org/2000/svg" viewBox="0 0 100 100">
  <!-- Background circle -->
  <circle cx="50" cy="50" r="45" fill="#8b5cf6"></circle>
  
  <!-- Main test tube with rounded bottom -->
  <path d="M40 25 
           C40 25, 40 35, 40 35
           L35 65 
           C35 80, 65 80, 65 65
           L60 35
           C60 35, 60 25, 60 25
           Z" fill="#f0abfc"></path>
        
  <!-- Test tube rim -->
  <path d="M37 25 L63 25" stroke="#f0abfc" stroke-width="6" stroke-linecap="round"></path>
        
  <!-- Heart-shaped bubbles -->
  <path d="M45 45 
           C45 45, 42 40, 39 40 
           C36 40, 35 43, 35 45
           C35 48, 45 55, 45 55
           C45 55, 55 48, 55 45
           C55 43, 54 40, 51 40
           C48 40, 45 45, 45 45" fill="#fdf4ff"></path>
        
  <path d="M50 60
           C50 60, 47 55, 44 55
           C41 55, 40 58, 40 60
           C40 63, 50 70, 50 70
           C50 70, 60 63, 60 60
           C60 58, 59 55, 56 55
           C53 55, 50 60, 50 60" fill="#fdf4ff" transform="scale(0.7)"></path>
        
  <!-- Sparkles -->
  <path d="M25 40 L30 40 M27.5 37.5 L27.5 42.5" stroke="#fdf4ff" stroke-width="2" stroke-linecap="round"></path>
        
  <path d="M70 45 L75 45 M72.5 42.5 L72.5 47.5" stroke="#fdf4ff" stroke-width="2" stroke-linecap="round"></path>
        
  <path d="M65 25 L70 25 M67.5 22.5 L67.5 27.5" stroke="#fdf4ff" stroke-width="2" stroke-linecap="round"></path>
        
  <!-- Small stars -->
  <circle cx="72" cy="65" r="2" fill="#fdf4ff"></circle>
  <circle cx="30" cy="55" r="2" fill="#fdf4ff"></circle>
  
  <!-- Cute face -->
  <circle cx="45" cy="50" r="2" fill="#86198f"></circle> <!-- left eye -->
  <circle cx="55" cy="50" r="2" fill="#86198f"></circle> <!-- right eye -->
  <path d="M46 55 Q50 58 54 55" stroke="#86198f" stroke-width="2" stroke-linecap="round" fill="none"></path> <!-- smile -->
</svg><style>@media (prefers-color-scheme: light) { :root { filter: none; } }
@media (prefers-color-scheme: dark) { :root { filter: none; } }
</style></svg>